<svg viewBox="0 0 237 64" xmlns="http://www.w3.org/2000/svg"><path d="m116.865545 46.3663839c.226086 0 .419153.0796351.577646.23774l1.359625 1.4617907c-.997188 1.0655572-2.084888 2.0223445-3.262711 2.8719156-1.1786.8499596-2.464417 1.5756107-3.858226 2.1757878-1.39381.6005656-2.923193 1.0651687-4.588539 1.393421-1.665734.3286407-3.495789.492961-5.489387.492961-3.3314687 0-6.3851855-.5830847-9.160762-1.7504195-2.7759649-1.1669464-5.155308-2.8214153-7.1380291-4.9626298-1.9831096-2.1412145-3.5295854-4.7303282-4.6394275-7.7669526-1.1106191-3.0362359-1.6657344-6.4127665-1.6657344-10.1292031 0-3.648067.5718193-6.9791473 1.7162347-9.9932408 1.1444154-3.013705 2.753434-5.6024302 4.8270557-7.7669525 2.0732333-2.163357 4.5547424-3.84074528 7.4437504-5.03022256 2.8893965-1.18986575 6.0786873-1.78460439 9.5682612-1.78460439 1.744592 0 3.342345.13052396 4.792871.39079496 1.449748.26065945 2.804322.63475045 4.061781 1.12149605 1.257459.48791099 2.441497 1.09352663 3.552116 1.81840077 1.109842.72565107 2.197542 1.56395677 3.263099 2.51569397l-1.053903 1.5293834c-.181413.2719249-.464603.4078874-.849571.4078874-.203944 0-.464992-.11887-.78159-.3569986-.317764-.2377401-.719824-.5321959-1.206958-.883756-.487523-.3507831-1.076434-.7357511-1.767512-1.1556809-.691466-.4191528-1.51268-.8041208-2.464028-1.1552924-.952126-.35117161-2.05148-.64601591-3.297284-.88414445-1.246582-.23774007-2.662922-.35699857-4.249021-.35699857-2.9231931 0-5.6082574.50461496-8.0555817 1.51267952-2.4473243 1.0088414-4.5547424 2.4477127-6.3222543 4.3170023-1.767512 1.869678-3.144229 4.1355895-4.1297626 6.7981229-.9859221 2.6629219-1.4788831 5.648269-1.4788831 8.9564299 0 3.3990614.4871341 6.4356858 1.4617907 9.1094847.9738796 2.6741873 2.3226272 4.9342719 4.0446889 6.7810305 1.7220617 1.8471471 3.75606 3.2634875 6.1016067 4.2490211 2.3451582.985922 4.8888215 1.4784946 7.6306014 1.4784946 1.722062 0 3.257272-.1130431 4.60602-.3399061 1.347971-.2264747 2.588337-.5663808 3.721875-1.0197185 1.132762-.4529492 2.186665-1.007676 3.161321-1.6657343.97388-.6565045 1.937271-1.4276059 2.889008-2.3109734.113044-.0901237.220648-.1643203.322814-.2210361.102166-.0563273.221036-.0850736.356999-.0850736zm12.590512 8.0897663v-49.4561502h3.228914v49.4561502zm28.852399-2.1074181c2.016518 0 3.778203-.3449562 5.285444-1.0368109 1.506852-.6906893 2.764311-1.6824383 3.772764-2.9740817 1.008064-1.2916433 1.762073-2.8493847 2.260473-4.6736124.498399-1.8238393.748182-3.8691031.748182-6.1354031 0-2.2429921-.249783-4.2824289-.748182-6.1183106-.4984-1.8354932-1.252409-3.4045-2.260473-4.7074088-1.008453-1.3032973-2.265912-2.3059233-3.772764-3.0082665-1.507241-.7023432-3.268926-1.0539033-5.285444-1.0539033-2.017294 0-3.778591.3515601-5.285443 1.0539033-1.50763.7023432-2.765088 1.7049692-3.773153 3.0082665-1.008453 1.3029088-1.767512 2.8719156-2.277565 4.7074088-.509665 1.8358817-.764498 3.8753185-.764498 6.1183106 0 2.2663.254833 4.3115638.764498 6.1354031.510053 1.8242277 1.269112 3.3819691 2.277565 4.6736124 1.008065 1.2916434 2.265523 2.2833924 3.773153 2.9740817 1.506852.6918547 3.268149 1.0368109 5.285443 1.0368109zm0-32.2572876c2.424405 0 4.593977.4141028 6.509106 1.241143 1.91474.8274287 3.529197 1.9998135 4.843759 3.517543 1.314175 1.5185065 2.316801 3.3481727 3.008267 5.4897756.690689 2.141603 1.036422 4.53765 1.036422 7.1889179 0 2.651268-.345733 5.0422649-1.036422 7.172214-.691466 2.129949-1.694092 3.9541767-3.008267 5.4722947-1.314562 1.5185064-2.929019 2.6854528-4.843759 3.5008391-1.915129.8161632-4.084701 1.2240506-6.509106 1.2240506-2.425182 0-4.594754-.4078874-6.509494-1.2240506-1.91474-.8153863-3.534635-1.9823327-4.860464-3.5008391-1.325828-1.518118-2.334281-3.3423457-3.025359-5.4722947-.691466-2.1299491-1.036422-4.520946-1.036422-7.172214 0-2.6512679.344956-5.0473149 1.036422-7.1889179.691078-2.1416029 1.699531-3.9712691 3.025359-5.4897756 1.325829-1.5177295 2.945724-2.6901143 4.860464-3.517543 1.91474-.8270402 4.084312-1.241143 6.509494-1.241143zm42.520899 4.758686c-.158881.3181522-.407887.4762571-.747793.4762571-.249394 0-.572208-.141401-.96883-.4249798-.396622-.2828019-.917552-.6001771-1.56318-.9517372-.646015-.3507832-1.439259-.6681584-2.379343-.9517372-.94086-.2831904-2.090714-.4249798-3.450338-.4249798-1.223274 0-2.340108.1751973-3.347784.5259805-1.008842.3503946-1.869679.8192709-2.583676 1.4070172-.713997.5869693-1.269112 1.2706663-1.665346 2.0503139-.396621.7796475-.594738 1.5993069-.594738 2.4578127 0 1.0620611.271536 1.9438747.815775 2.6446641.543849.7004009 1.257458 1.2986357 2.141214 1.7962583.883756.4968457 1.886771.9264871 3.007878 1.2881472 1.121885.3620486 2.271739.7237087 3.450339 1.0861458 1.178212.3624371 2.328066.764886 3.44995 1.2065697 1.121885.4420722 2.124511.991749 3.008267 1.6486419.883756.6576699 1.597753 1.4614022 2.141603 2.4131395.543849.9521256.815774 2.1074181.815774 3.4670427 0 1.4734445-.266875 2.8439461-.79907 4.1130586-.532585 1.2695009-1.302909 2.368466-2.310974 3.2968954-1.008841.9295947-2.249207 1.6657343-3.722263 2.2095841-1.473057.5438499-3.150056.8157748-5.030223.8157748-2.379343 0-4.430822-.3795295-6.152495-1.1385885-1.722451-.759059-3.263488-1.7504195-4.623113-2.9740816l.781979-1.1556809c.113043-.1814128.23774-.3169868.374091-.4082759.135574-.0901237.328252-.135574.577646-.135574.294456 0 .657281.1814128 1.0877.5438499.43003.3628255.99136.753232 1.682438 1.1727733s1.551914.8103362 2.583287 1.1723848c1.030984.3628256 2.305535.5438499 3.824041.5438499 1.427606 0 2.685064-.1981168 3.773153-.5947387 1.087699-.3962334 1.993598-.9346448 2.719249-1.6144571.724874-.6798122 1.274551-1.478883 1.648253-2.3964354.374091-.9175524.561331-1.886382.561331-2.9061004 0-1.1327616-.272314-2.0736218-.816163-2.8214153-.543462-.7477935-1.257459-1.3821555-2.141603-1.9034744-.883368-.5209305-1.885994-.9630027-3.007878-1.3258282-1.121885-.3620486-2.277177-.7248742-3.467043-1.0873112-1.189477-.3624371-2.345547-.7594475-3.467431-1.1898658-1.121108-.4300298-2.124122-.9742681-3.007878-1.6315495-.883756-.6568929-1.597365-1.4555752-2.141215-2.3964354-.544238-.9400833-.815775-2.1128567-.815775-3.5179315 0-1.2011313.260271-2.3564237.78159-3.4670427.521319-1.1098422 1.263286-2.0844988 2.226289-2.9231929.963002-.8379172 2.135776-1.5068525 3.51832-2.005252 1.381767-.4983996 2.934458-.748182 4.656519-.748182 2.061968 0 3.892023.2995058 5.489388.8961868 1.597753.5974579 3.064593 1.5107372 4.402076 2.7413916zm22.235689-2.3451582c-1.74265 0-3.303887.271925-4.683712.8157748-1.380213.5438498-2.573575 1.3258282-3.580863 2.3455466-1.006899 1.0197185-1.82112 2.2429921-2.443439 3.6709864-.622708 1.4276058-1.035257 3.0249705-1.238813 4.7924825h22.264047c0-1.8125738-.249005-3.4382964-.746628-4.8775561-.498011-1.4388713-1.199189-2.6567065-2.10431-3.653894-.905122-.996799-1.991268-1.761685-3.258438-2.2942694-1.266781-.5321959-2.669914-.7990708-4.207844-.7990708zm-.050111-2.4135278c1.903862 0 3.665547.3290291 5.285831.985922 1.619896.6576699 3.024971 1.6148456 4.214837 2.8723041 1.189477 1.2574585 2.118683 2.8043228 2.78723 4.6394275.668158 1.8358817 1.002626 3.9432998 1.002626 6.3226428 0 .498788-.073808.8386942-.221036 1.0197185-.146839.1814127-.379141.2719249-.695739.2719249h-24.406039v.6456274c0 2.5382249.294068 4.77034.883368 6.6959569.5893 1.9263938 1.427994 3.5408509 2.515694 4.8437597 1.0877 1.3032973 2.401485 2.2833924 3.942523 2.9402853 1.541037.6576698 3.263487.9855336 5.166962.9855336 1.69953 0 3.172198-.1868513 4.41878-.5605538 1.245804-.374091 2.294269-.7928554 3.144229-1.2574585.849571-.4646031 1.523556-.8841444 2.022344-1.2582354.498011-.3733141.860837-.5605538 1.0877-.5605538.294067 0 .520542.11382.679812.3399061l.883756 1.0876997c-.54385.6798123-1.263674 1.3145627-2.158695 1.9034744-.895022.5896886-1.892209 1.0935266-2.991175 1.5126795-1.099353.4195413-2.277177.7536205-3.534635 1.002626-1.257847.2490055-2.521521.374091-3.790245.374091-2.310973 0-4.41878-.4024489-6.322254-1.2069582-1.903475-.8041208-3.536966-1.9765057-4.900087-3.5179315-1.363121-1.5406489-2.417024-3.4274193-3.160933-5.6595345-.744686-2.2317266-1.116446-4.7866554-1.116446-7.6647865 0-2.4244048.345344-4.6619584 1.036811-6.7130492.691077-2.0507024 1.687876-3.8178259 2.991174-5.3025359 1.302909-1.4839332 2.900273-2.645441 4.792482-3.4841352 1.892209-.8383056 4.039251-1.2578469 6.441125-1.2578469z" fill="#262e39"/><path d="m63.9980609 33.3334059v-2.6671858c0-2.2760465-.9526521-4.4413102-2.6663859-6.4014058-.9298556-1.0630349-2.0848762-2.0660791-3.431867-2.9935351-.7614818-.5227188-1.5837541-1.0218413-2.4624176-1.4953678-.6443-.3463462-1.3189952-.6790945-2.0236857-.9962453-1.8349151-.8274714-3.8622002-1.5505591-6.0454612-2.1496661.2555604.927456.4867245 1.8829076.6950921 2.8635553.2039683.9610507.3851402 1.9452979.5423158 2.9507417 1.1762173.3847403 2.3024424.8122739 3.3718763 1.2798013.4971228.218366.9838472.444331 1.4557739.6802943.2523608.1259804.4979227.2539606.7394852.3839404.8398695.4515299 1.6137493.9254563 2.3160403 1.41658 2.550004 1.7785238 4.1713522 3.7814127 4.6736741 5.7947-.5023219 2.0132874-2.1236701 4.0153764-4.6736741 5.7947001.2735575.7222878.5167197 1.4341773.7266871 2.1352684.2871554.9554516.51512 1.8901065.6842938 2.7983654 1.3469908-.927456 2.5020114-1.9305002 3.431867-2.9935351 1.7137338-1.9604955 2.6663859-4.1253593 2.6663859-6.4010059" fill="#2f577e"/><path d="m24.9789207 48.9475671c-1.09463-.8730644-2.1816612-1.80332-3.2526949-2.7875671.219166.8374699.4579289 1.6557429.7174886 2.4508194.8310709.1295799 1.6769396.2407626 2.5352063.3367477" fill="#2f577e"/><path d="m30.727228 46.6574096c.4231342.3055525.8470684.6031063 1.2722024.8918615.8090743.5483148 1.6209482 1.0646346 2.433622 1.5477596.103184.0611905.2071678.1203813.3099519.180372 1.454974-.0615905 2.8823523-.1719733 4.2769358-.328749.8582667-.0959851 1.7041353-.2071678 2.5336065-.3367477 1.0062437-.1575755 1.9908908-.3391473 2.9519415-.5431156.9806477-.2079677 1.9352995-.4403316 2.8627554-.6942922 2.183261-.5995069 4.2105461-1.3225946 6.0454612-2.1496662-.1495768-.8446688-.3619438-1.7261319-.6367012-2.6403899-.0787877-.2623592-.1615749-.5259183-.250761-.7934768-.1671741-.5007222-.3507455-1.0046439-.5487148-1.5109653-1.0694339.4679273-2.195659.8958609-3.3718763 1.2798012-.7946766.2595597-1.6125496.4987226-2.4504195.7178886-.1163819.0307952-.2327638.0623903-.3491458.0915857-.9170575.2327639-1.8549119.4427313-2.8159626.6267027-.5047216.0971849-1.0150424.1859711-1.5297624.2695581-1.4849694.2395628-3.0099326.4235343-4.5704902.5463152-1.6001515.1279801-3.2346977.19317-4.8904405.19317-1.6565428 0-3.290289-.0651899-4.8904405-.19317 1.1890153 1.0158422 2.3992274 1.9656947 3.6182381 2.8455581" fill="#2f577e"/><path d="m11.2210573 21.4225606c.0787878.2627592.1623748.5267182.251561.7938767.1663741.5003223.3507455 1.004644.5483148 1.5105654 1.0698339-.4675274 2.1952591-.895061 3.3706765-1.2798012.7954765-.2591598 1.6133495-.4979227 2.4520192-.7174886.1155821-.0311951.231964-.0619904.3483459-.0915858.9166577-.2327638 1.8557118-.4427312 2.8159627-.6267026.5047216-.096785 1.0150424-.1863711 1.5297624-.2687583 1.4849694-.2407626 3.0107324-.4239342 4.5712901-.547515 1.6001515-.1271802 3.2338977-.1923701 4.8904405-.1923701 1.6557428 0 3.290289.0651899 4.8904405.1923701-1.1898152-1.0150423-2.3992274-1.9648948-3.6182381-2.845558-.4231343-.3047527-.8474684-.6031064-1.2722024-.8910616-.8098743-.5491148-1.6217482-1.0646347-2.434422-1.5477597-.1035839-.0619903-.2063679-.1207812-.3091519-.1807719-1.4561739.0611905-2.8839522.1723732-4.2769358.328349-.8582667.0959851-1.7041354.2075678-2.5352063.3371476-1.0054438.1579755-1.989291.3391474-2.9503418.5427158-.9806477.2083676-1.9368992.4407315-2.8643551.6946921-2.1816612.5991069-4.2089464 1.3221946-6.0446613 2.1496661.1495768.8446688.3611439 1.725732.6367011 2.63999" fill="#2f577e"/><path d="m39.0199401 15.06c1.0938301.8734643 2.1808613 1.8041198 3.2526948 2.788367-.2199658-.8382699-.4587288-1.6561428-.7190883-2.4512194-.8294712-.1295798-1.6753398-.2411625-2.5336065-.3371476" fill="#2f577e"/><path d="m2.8363595 31.9983339c.50232199-2.0132874 2.12327025-4.0161763 4.67287429-5.7947001-.27435739-.7222878-.51591988-1.4341773-.72588727-2.1356683-.28875515-.9554516-.51591987-1.8901065-.68429372-2.7979655-1.34779069.927456-2.50281131 1.9305002-3.4326669 2.9935351-1.71333391 1.9600956-2.6663859 4.1253593-2.6663859 6.4014058v2.6671858c0 2.2756466.95305199 4.4405104 2.6663859 6.4010059.92985559 1.0630349 2.08487621 2.0660791 3.4326669 2.9935351.76068186.5227188 1.58335409 1.0218413 2.46241757 1.4945679.64350006.347546 1.31899516.6794945 2.02288583.9970451 1.8357149.8270716 3.8630001 1.5501593 6.0446613 2.1496662-.2539606-.927456-.4859246-1.8833075-.6942922-2.8635553-.2031685-.9606508-.3851402-1.9448979-.5431157-2.9511417-1.1754174-.3839403-2.3008426-.8118739-3.3706765-1.2798012-.4967229-.2179662-.9838472-.4435311-1.4561738-.6798944-.2523609-.1263804-.4971228-.2539606-.73868532-.3835404-.84066945-.4523298-1.61414932-.9262562-2.31684019-1.41698-2.54960404-1.7793237-4.1705523-3.7814127-4.67287429-5.7947" fill="#2f577e"/><g fill="#f4b563"><path d="m39.0199401 48.94c-1.3945835.1567757-2.8219618.2671585-4.2769358.3287489.7486837.4371322 1.4957677.8482683 2.2428517 1.2266095.6794944-.4963229 1.3589889-1.0154423 2.0340841-1.5553584"/><path d="m55.5689699 10.3198476-1.8857071-1.88570715c-1.60975-1.60935006-3.8146076-2.46641696-6.4122042-2.64078988-1.4089811-.09478528-2.9347442.01359789-4.5436943.31075174-.907859.16837385-1.8433137.39593851-2.7979655.68309392-.7010911.2111672-1.4133805.45312962-2.1352684.72708708-1.8833075.71228937-3.8278055 1.63374627-5.7947 2.75477219.8346703.4751262 1.6745399.9870467 2.5152094 1.5329619.8234721.534717 1.6485439 1.1034286 2.4712162 1.7025356 1.1034286-.559913 2.2008582-1.0534364 3.2886892-1.4785704.5055215-.1979692 1.0098432-.3815407 1.5101655-.5487148.2679584-.0891861.5315174-.1723732.7946766-.251161.913858-.2751572 1.7945213-.4871243 2.63999-.637101 3.0599247-.5447154 5.6223268-.2743574 7.4004507.7938767"/><path d="m52.619828 11.3773007c1.0694339 1.7789237 1.3385921 4.3409258.7938767 7.4012505.7046905.3171508 1.3793857.6498991 2.0236857.9962453.8786635.4735265 1.7009358.972649 2.4624176 1.4953678.295954-1.6089501.405137-3.1339133.3099518-4.5436944-.173973-2.5975965-1.0322397-4.8020542-2.6407899-6.4122041-.3175506-.31675083-.6586977-.60390623-1.0214413-.8642658"/><path d="m41.4603611 43.266166c.51472-.0835871 1.0250408-.1723733 1.5297624-.2695582.9610507-.1839714 1.8989051-.3939388 2.8159626-.6267026.116382-.0291955.2327639-.0607906.3491458-.0915858.9842472-1.0710337 1.9141028-2.1580649 2.787967-3.2522949.5395163-.6750952 1.0582357-1.3541897 1.5553585-2.0344841.5991069-.8222723 1.1670187-1.6473441 1.7025356-2.4704163.5455153-.8406694 1.0578357-1.6793392 1.5337618-2.5156093 1.120226-1.9676944 2.0416829-3.9117925 2.7539723-5.7947001-.702291-.4911237-1.4761708-.9650501-2.3160403-1.41658-.2415625-.1299798-.4871244-.2579599-.7394852-.3839404-.4719267-.2359633-.9586511-.4619282-1.4557739-.6802943-.4259338 1.0878311-.9198571 2.1860605-1.4789703 3.2894891-.3791411.7462841-.7898773 1.493768-1.2266095 2.2424518-.0603906.1031839-.1195814.2067679-.1807719.3095519-.483125.8126738-.9990449 1.6245477-1.5473597 2.434022-.2903549.425134-.586309.8490681-.8914616 1.2726023-.8810631 1.2190107-1.8305157 2.4284229-2.8463579 3.6182381-1.0414383 1.2218103-2.1512659 2.4236236-3.3222841 3.5946418-1.1698183 1.1710181-2.3716316 2.2800459-3.5938418 3.3214841 1.5605576-.1227809 3.0855208-.3067523 4.5704902-.5463151"/><path d="m24.9789207 15.0553584c1.3929836-.1559757 2.8207619-.2671585 4.2769358-.328349-.7494836-.437532-1.4965676-.8478683-2.2436516-1.2270094-.6794945.4967229-1.3577891 1.0158422-2.0332842 1.5553584"/><path d="m11.377433 52.6232635c-1.0678341-1.7797236-1.3385921-4.3425255-.7930768-7.4016505-.70389067-.3175506-1.37938577-.6494991-2.02288583-.9970451-.87906348-.4727266-1.70173571-.9718491-2.46241757-1.4945679-.29755379 1.6093501-.40513709 3.1343132-.31075174 4.5436943.17477285 2.5979966 1.03143981 4.8024542 2.64118981 6.4126041l1.88610713 1.8849073c1.6089501 1.6093501 3.8138077 2.466417 6.4114042 2.6411898 1.4097811.0947853 2.9347443-.0131979 4.5436944-.3111516.9082589-.167974 1.8433137-.3955386 2.7987653-.683094.7010911-.2107672 1.4125806-.4527297 2.1348685-.7262872 1.8829076-.7130892 3.8274056-1.6345461 5.7951-2.7547721-.8354703-.4759261-1.6753398-.9882466-2.5164092-1.5333619-.8222723-.5351169-1.6473442-1.1034286-2.4708163-1.7029355-1.1026288.5607129-2.2008582 1.0542362-3.2886892 1.4793702-.5063214.1971694-1.0106431.3815408-1.5101655.5483149-.2679584.089586-.5315175.1723732-.7938767.2515609-.914658.2747573-1.7953212.4863245-2.6407899.6367011-3.0599248.5447154-5.621527.2743574-7.4012506-.7934768"/><path d="m9.82607398 39.2090463c.24156252.1295798.48632442.25716.73868532.3835404.4723266.2363633.9594509.4619283 1.4561738.6798944.424734-1.0874311.9186573-2.1852606 1.4793703-3.2890892.3783412-.7462841.7890774-1.493768 1.2258096-2.2424517.0603906-.1027841.1199813-.206368.1807719-.3095519.483125-.8122739.9990449-1.6249477 1.5485595-2.434022.2883552-.425134.585909-.8490682.8910616-1.2722024.8802633-1.2190107 1.8297159-2.4284229 2.8455581-3.6182381 1.0418382-1.2222102 2.150466-2.4236236 3.3230839-3.5942418 1.1690185-1.171818 2.3716317-2.2808458 3.5938419-3.322684-1.5605577.1235808-3.0863207.3067524-4.5712901.547515-.51472.0823872-1.0250408.1719733-1.5297624.2687582-.9602509.1839715-1.899305.3939388-2.8159627.6267027-.1163819.0295954-.2327638.0603906-.3483459.0915858-.985047 1.0710336-1.9149026 2.1576649-2.7887669 3.2522949-.5395162.6750951-1.0582356 1.3541897-1.5553584 2.034484-.599107.8222723-1.1670188 1.6469442-1.7029355 2.4700164-.5451154.8414693-1.0574358 1.6797391-1.532562 2.5160093-1.12102594 1.9672944-2.04248283 3.9117925-2.75477221 5.7947.70269087.4907238 1.47617074.9646502 2.31684019 1.41698"/></g><path d="m15.0548619 39.0169358c-.1555758-1.3929837-.2675584-2.8215618-.3287489-4.2769358-.4367322.7486837-.8474684 1.4961676-1.2258096 2.2424517.4963229.6802944 1.0150423 1.3593889 1.5545585 2.0344841" fill="#5cafcd"/><path d="m11.377433 11.3828825c1.7797236-1.0682341 4.3421257-1.3385921 7.4012506-.7934768.3171507-.70389065.650299-1.37898581.9970452-2.02328575.4731265-.87906348.9714491-1.70133577 1.4949678-2.46201764-1.6089501-.29715385-3.1339133-.40553702-4.5436944-.31075174-2.5975965.17437292-4.8024541 1.03143982-6.4114042 2.64078988-.31755073.31795062-.6043062.65949758-.8650657 1.02144137.2607595-.36194379.54751497-.70349075.8650657-1.02144137l-1.88610713 1.88570715c-1.60975 1.6101499-2.46641696 3.8146076-2.64118981 6.4122042-.09438535 1.409781.01319795 2.9347442.31075174 4.5436943.16837385.907859.39553857 1.8425139.68429372 2.7979655.20996739.701491.45152988 1.4133805.72588727 2.1356683.71228938 1.8829076 1.63374627 3.8270056 2.75477221 5.7947001.4751262-.8362702.9874466-1.67454 1.532562-2.5160093.5359167-.8230722 1.1038285-1.6477441 1.7029355-2.4700164-.5599131-1.1034286-1.0538364-2.2016581-1.4785704-3.2894891-.1975693-.5059215-.3819407-1.0102431-.5483148-1.5105654-.0891862-.2671585-.1727732-.5311175-.251561-.7938767-.2755572-.9142581-.4871243-1.7953212-.6367011-2.63999-.5455153-3.0599248-.2747573-5.6223269.7930768-7.4012506" fill="#5cafcd"/><path d="m48.9431989 24.98c.1563758 1.3933836.2667586 2.8211619.328749 4.2769358.4367322-.7486838.8474684-1.4961677 1.2266095-2.2424518-.4971228-.6802943-1.0158422-1.3593888-1.5553585-2.034484" fill="#5cafcd"/><path d="m43.2592817 22.538866c-.083587-.51552-.1723733-1.0254408-.2691582-1.5301624-.1843714-.9606508-.3935389-1.899305-.6267027-2.8163626-.0295954-.1163819-.0607906-.231964-.0907859-.3483459-1.0718335-.9842471-2.1588647-1.9149026-3.2526948-2.788367-.6750952-.5395162-1.3545897-1.0586356-2.0340841-1.5553584-.8226723-.599107-1.6477441-1.1678186-2.4712162-1.7025356-.8406695-.5459152-1.6805391-1.0578357-2.5152094-1.5329619-1.9676944-1.12102593-3.9121924-2.04248282-5.7951-2.7547722-.4911238.70269087-.9654501 1.47617075-1.41658 2.31644025-.12918.24116255-.25756.48712435-.3843403.73868525-.2355635.4723267-.4615284.959451-.6798944 1.4569738 1.087831.424734 2.1860604.9182573 3.2886892 1.4781704.747084.3791411 1.494168.7894774 2.2436516 1.2270094.102784.0599907.205568.1187816.3091519.180772.8126738.4831249 1.6245477.9986449 2.434422 1.5477596.424734.2879553.8490681.5863089 1.2722024.8910616 1.2190107.8806632 2.4284229 1.8305157 3.6182381 2.8455581 1.2222102 1.0418382 2.4240235 2.1508659 3.5938418 3.3226839 1.1710182 1.1706182 2.2808458 2.3720317 3.3222841 3.5942418-.1231809-1.5597577-.3067524-3.0867206-.5467151-4.5704901" fill="#5cafcd"/><path d="m20.7395791 41.4600902c.0823872.5159199.1715733 1.0258407.2683583 1.5301624.1835715.9606508.3935389 1.899705.6263027 2.8159627.0299954.1171818.0611905.2327638.0919857.3491458 1.0710337.9842471 2.1580649 1.9145026 3.2526949 2.787567.6754951.5399162 1.3537897 1.0590356 2.0332842 1.5553585.8234721.5995069 1.648544 1.1678186 2.4708163 1.7029355.8410694.5451154 1.6809389 1.0574358 2.5164092 1.5333619 1.9668945 1.120226 3.9113925 2.0416829 5.7947 2.7547721.4907238-.7026908.9650502-1.4765706 1.4161801-2.3168401.1291799-.2411626.25756-.4871244.3835404-.7386853.2367633-.4723267.4623282-.959451.6806943-1.4561739-1.087831-.4251339-2.1852606-.9186573-3.2886892-1.4793702-.747084-.3783413-1.494168-.7894774-2.2428517-1.2266095-.1027841-.0599907-.2067679-.1191815-.3099519-.180372-.8126738-.483125-1.6245477-.9994448-2.433622-1.5477596-.425134-.2887552-.8490682-.586309-1.2722024-.8918615-1.2190107-.8798634-2.4292228-1.8297159-3.6182381-2.8455581-1.2222102-1.0414383-2.4248234-2.150466-3.5938419-3.322284-1.1726179-1.1702183-2.2812457-2.3720317-3.3230839-3.5938419.1231809 1.5593578.3075522 3.0855208.547515 4.5700902" fill="#5cafcd"/><path d="m53.6832628 55.5695396 1.8857071-1.8849073c1.6085502-1.6101499 2.4668169-3.8146076 2.6407899-6.4126041.0951852-1.4093811-.0139978-2.9343443-.3099518-4.5436943-.1691738-.908259-.3971384-1.8429138-.6842938-2.7983655-.2099674-.7010911-.4531296-1.4129805-.7266871-2.1352683-.7122894-1.8829076-1.6337463-3.8274056-2.7539723-5.7947001-.4759261.8362701-.9882465 1.6749399-1.5337618 2.5156093-.5355169.8230722-1.1034287 1.6481441-1.7025356 2.4704164.5591132 1.1038285 1.0530365 2.201658 1.4789703 3.2890891.1979693.5063214.3815407 1.0102432.5487148 1.5109654.0891861.2675584.1719733.5311175.250761.7934768.2747574.914258.4871244 1.7957211.6367012 2.6403899.5447154 3.0591249.2755572 5.6219269-.7938767 7.4016505-1.7781239 1.0678342-4.340526 1.3381922-7.4004507.7934768-.3171508.7034907-.650299 1.3789858-.9970452 2.0232857-.4731265.8786636-.972249 1.7005359-1.4949678 2.4612178 1.6089501.2979537 3.1347132.405937 4.5436943.3111517 2.5975966-.1747729 4.8024542-1.0318398 6.4122042-2.6411898" fill="#5cafcd"/><path d="m17.346506 30.7282381c-.3051526.4231343-.6027064.8470684-.8910616 1.2722024-.5495146.8090743-1.0654345 1.6217481-1.5485595 2.434022-.0607906.103184-.1203813.2067679-.1807719.3095519.0611905 1.455374.1731731 2.8839521.3287489 4.2769358.0963851.8582667.2075678 1.7049352.3367477 2.5344064.1579755 1.0062437.3399472 1.9904909.5431157 2.9511417.2083676.9802477.4403316 1.9360993.6942922 2.8635552.5999068 2.1824611 1.3233944 4.2097463 2.1496661 6.0454612.8454687-.1503767 1.7261319-.3619438 2.6407899-.6367012.2623592-.0791877.5259183-.1619748.7938767-.2515609.4995224-.1667741 1.0038441-.3511455 1.5101655-.5483148-.4675274-1.0698339-.8958609-2.195659-1.2798013-3.3714764-.2595597-.7950766-.4983226-1.6133495-.7174886-2.4508194-.0307952-.1163819-.0619903-.231964-.0919857-.3491458-.2327638-.9162577-.4427312-1.8553119-.6263027-2.8159627-.096785-.5043216-.1859711-1.0142424-.2683583-1.5301623-.2399628-1.4845695-.4243341-3.0107324-.547515-4.5700903-.1275802-1.6005514-.1927701-3.2342977-.1927701-4.8908404 0-1.6561428.0651899-3.290289.1927701-4.8904405-1.0158422 1.1898152-1.9652948 2.3992274-2.8455581 3.6182381" fill="#47b178"/><path d="m48.9431989 39.02c-.8738642 1.0942301-1.8037198 2.1812612-2.787967 3.2522949.8378699-.219166 1.6557429-.4583288 2.4504195-.7178885.1299798-.8294712.2415625-1.6761397.3375475-2.5344064" fill="#47b178"/><path d="m15.0548619 24.9822949c.8738643-1.09463 1.8037199-2.1812612 2.7887669-3.2522949-.8386697.2195659-1.6565427.4583288-2.4520192.7174886-.1291799.830671-.2403626 1.6765396-.3367477 2.5348063" fill="#47b178"/><path d="m46.6523547 33.2776765c.3051526-.4235342.6011067-.8474684.8914616-1.2726023.5483148-.8094743 1.0642347-1.6213482 1.5473597-2.434022.0611905-.1027841.1203813-.206368.1807719-.309552-.0619904-1.4557739-.1723732-2.8835521-.328749-4.2769357-.095985-.8582667-.2075677-1.7041354-.3375475-2.5348064-.1571756-1.0054438-.3383475-1.989691-.5423158-2.9507417-.2083676-.9806477-.4395317-1.9360993-.6950921-2.8635553-.598707-2.182461-1.3217947-4.2097462-2.1488662-6.0454611-.8454687.1499767-1.726132.3619438-2.63999.6371011-.2631592.0787877-.5267182.1619748-.7946766.2511609-.5003223.1671741-1.004644.3507456-1.5101655.5487148.4675274 1.0698339.895061 2.1948592 1.2790014 3.3710765.2603595.7950765.4991225 1.6129495.7190883 2.4512193.0299953.1163819.0611905.231964.0907859.3483459.2331638.9170576.4423313 1.8557118.6267027 2.8163626.0967849.5047216.1859711 1.0146424.2691582 1.5301624.2399627 1.4837695.4235342 3.0107324.5467151 4.5704902.1267803 1.6001515.19317 3.2342977.19317 4.8904405 0 1.6565427-.0663897 3.290289-.19317 4.8908404 1.0158422-1.1898152 1.9652948-2.3992274 2.8463579-3.6182381" fill="#47b178"/><path d="m42.7273643 6.0990528c-.927456-1.34779069-1.9309001-2.50321125-2.9935351-3.4326669-1.9600956-1.71333391-4.1253593-2.6663859-6.4010059-2.6663859h-2.6671858c-2.2752466 0-4.4409103.95305199-6.4014058 2.6663859-1.0634349.92945565-2.0656792 2.08487621-2.9935351 3.4326669-.5235187.76068186-1.0218413 1.58295416-1.4949678 2.46201763-.3467462.64429994-.6798945 1.3193951-.9970452 2.02328577-.8262717 1.835315-1.5497593 3.8626001-2.1496661 6.0450612.9274559-.2539606 1.8837074-.4863245 2.8643551-.6946921.9610508-.2035684 1.944898-.3847403 2.9503418-.5427157.3839404-1.1762174.8122739-2.3012426 1.2798013-3.3706766.218366-.4975227.4443309-.984647.6798944-1.4569737.1267803-.2515609.2551603-.4975227.3843403-.73868526.4511299-.84026951.9254562-1.61374938 1.41658-2.31644025 1.7793236-2.54960404 3.7814127-4.1705523 5.7951-4.67327422 2.0132873.50272192 4.0157763 2.12367018 5.7947 4.67327422.7218879-.27395745 1.4341773-.51591988 2.1352684-.72708708" fill="#47b178"/><path d="m30.6656375 63.9998173h2.6671858c2.2756466 0 4.4409103-.9534519 6.4010059-2.6667858 1.062635-.9294557 2.0660791-2.0848762 2.9935351-3.4330668.5227188-.7606819 1.0218413-1.5825543 1.4949678-2.4612178.3467462-.6442999.6798944-1.319795.9970452-2.0232858.8270715-1.8357149 1.5501592-3.863 2.1488662-6.0454611l-2.8627554.6942922c-.9610507.2039683-1.9456978.3855401-2.9519415.5431156-.3839404 1.1758174-.811474 2.3016426-1.2790014 3.3714764-.2183661.4967229-.443931.9838472-.6806943 1.4561739-.1259804.2515609-.2543605.4975227-.3835404.7386853-.4511299.8402695-.9254563 1.6141493-1.4161801 2.3168401-1.7789237 2.5496041-3.7814127 4.1697525-5.7947 4.6724744-2.0136873-.5027219-4.0157764-2.1228703-5.7951-4.6724744-.7222879.2735576-1.4337774.51552-2.1348685.7262872l-2.7987653.683094c.9278559 1.3481906 1.9301002 2.5036111 2.9935351 3.4330668 1.9604955 1.7133339 4.1261592 2.6667858 6.4014058 2.6667858" fill="#47b178"/></svg>