<svg viewBox="0 0 102 28" fill="none"
  xmlns="http://www.w3.org/2000/svg">
  <path id="text" d="M50.4173 20.0442C50.5036 20.0442 50.5899 20.0875 50.6763 20.174L51.2806 20.7801C50.8489 21.2563 50.3741 21.646 49.8561 22.0356C49.3381 22.3819 48.777 22.7283 48.1727 22.988C47.5683 23.2478 46.9209 23.4209 46.1871 23.5941C45.4964 23.724 44.6763 23.8106 43.8561 23.8106C42.3885 23.8106 41.0935 23.5508 39.8849 23.0313C38.6763 22.5118 37.6403 21.8191 36.8201 20.8667C35.9568 19.9576 35.2662 18.832 34.7914 17.5332C34.3165 16.1912 34.1007 14.7625 34.1007 13.1175C34.1007 11.5589 34.3165 10.1303 34.8345 8.78826C35.3094 7.4895 36 6.36391 36.9065 5.45478C37.813 4.50236 38.8489 3.7664 40.1007 3.29019C41.3525 2.77068 42.7338 2.51093 44.2446 2.51093C44.9784 2.51093 45.6691 2.55422 46.3166 2.6841C46.9209 2.77068 47.5252 2.94385 48.0863 3.16031C48.6043 3.37677 49.1223 3.63652 49.5971 3.93957C50.0719 4.24261 50.5468 4.63224 51.0216 5.02186L50.5468 5.67124C50.4604 5.80112 50.3741 5.84441 50.2014 5.84441C50.1151 5.84441 49.9856 5.80112 49.8561 5.71453C49.7266 5.62795 49.554 5.49807 49.3381 5.32491C49.1223 5.19503 48.8633 5.02186 48.5612 4.8487C48.259 4.63224 47.9137 4.45907 47.5252 4.32919C47.0935 4.15603 46.6187 4.06944 46.1007 3.93957C45.5396 3.85298 44.9353 3.80969 44.2446 3.80969C42.9928 3.80969 41.8273 4.02615 40.7482 4.45907C39.7122 4.89199 38.8058 5.49808 38.0288 6.32062C37.295 7.14317 36.6907 8.09559 36.259 9.26447C35.8273 10.3901 35.6115 11.6888 35.6115 13.1175C35.6115 14.5894 35.8273 15.9314 36.259 17.1003C36.6907 18.2259 37.2518 19.2216 37.9856 20.0009C38.7194 20.8234 39.6259 21.4295 40.6187 21.8624C41.6547 22.2953 42.7338 22.5118 43.9425 22.5118C44.6763 22.5118 45.3237 22.4252 45.9281 22.3386C46.4892 22.252 47.0504 22.1222 47.5252 21.9057C48 21.6893 48.4748 21.4728 48.8633 21.1698C49.295 20.91 49.7266 20.5637 50.1151 20.174C50.1583 20.1307 50.2446 20.1307 50.2878 20.0875C50.3309 20.0442 50.3741 20.0442 50.4173 20.0442ZM55.8561 23.5508V2.1646H57.2374V23.5508H55.8561ZM68.3309 22.6417C69.1942 22.6417 69.9281 22.5118 70.5755 22.2088C71.2662 21.9057 71.7842 21.4728 72.2158 20.91C72.6475 20.3472 72.9928 19.6545 73.2086 18.8753C73.4245 18.096 73.5108 17.1869 73.5108 16.2345C73.5108 15.2388 73.4245 14.3729 73.2086 13.5937C72.9928 12.7711 72.6475 12.1217 72.2158 11.5589C71.7842 10.9529 71.2662 10.5199 70.5755 10.2169C69.9281 9.91385 69.1942 9.78398 68.3309 9.78398C67.4245 9.78398 66.6906 9.91385 66.0432 10.2169C65.3957 10.5199 64.8345 10.9529 64.4029 11.5589C63.9712 12.1217 63.6259 12.7711 63.4101 13.5937C63.1942 14.3729 63.1079 15.2388 63.1079 16.2345C63.1079 17.1869 63.1942 18.096 63.4101 18.8753C63.6259 19.6545 63.9712 20.3472 64.4029 20.91C64.8345 21.4728 65.3957 21.9057 66.0432 22.2088C66.6906 22.5118 67.4245 22.6417 68.3309 22.6417ZM68.3309 8.65839C69.3669 8.65839 70.3165 8.87484 71.1367 9.22118C71.9568 9.56752 72.6475 10.087 73.2086 10.7364C73.7698 11.3858 74.2014 12.165 74.5036 13.1175C74.8058 14.0266 74.9784 15.0656 74.9784 16.2345C74.9784 17.3601 74.8058 18.3991 74.5036 19.3515C74.2014 20.2606 73.7698 21.0399 73.2086 21.6893C72.6475 22.3386 71.9568 22.8581 71.1367 23.2045C70.3165 23.5508 69.3669 23.724 68.3309 23.724C67.2518 23.724 66.3453 23.5508 65.482 23.2045C64.6619 22.8581 63.9712 22.3386 63.4101 21.6893C62.8489 21.0399 62.4173 20.2606 62.1151 19.3515C61.8129 18.3991 61.6403 17.3601 61.6403 16.2345C61.6403 15.0656 61.8129 14.0266 62.1151 13.1175C62.4173 12.165 62.8489 11.3858 63.4101 10.7364C63.9712 10.087 64.6619 9.56752 65.482 9.22118C66.3453 8.87484 67.2518 8.65839 68.3309 8.65839ZM86.6763 10.7364C86.5899 10.8663 86.5036 10.9529 86.3309 10.9529C86.2446 10.9529 86.1151 10.8663 85.9424 10.7797C85.7698 10.6498 85.5108 10.5199 85.2518 10.3468C84.9928 10.1736 84.6475 10.0437 84.2158 9.91385C83.8273 9.82727 83.3093 9.74068 82.7482 9.74068C82.187 9.74068 81.7122 9.82727 81.2806 9.95714C80.8489 10.1303 80.5036 10.3468 80.1583 10.6065C79.8561 10.823 79.6403 11.126 79.4676 11.4724C79.295 11.8187 79.2086 12.165 79.2086 12.5547C79.2086 12.9876 79.295 13.3772 79.554 13.6802C79.7698 13.9833 80.1151 14.243 80.4604 14.4595C80.8489 14.676 81.2806 14.8491 81.7554 15.0223C82.2734 15.1955 82.7482 15.3253 83.2662 15.4985C83.7842 15.6284 84.259 15.8016 84.7338 16.018C85.2518 16.1912 85.6834 16.4509 86.0719 16.7107C86.4173 17.0137 86.7194 17.3601 86.9784 17.7497C87.1942 18.1826 87.3237 18.7021 87.3237 19.2649C87.3237 19.9143 87.1942 20.5204 86.9784 21.0399C86.7626 21.6027 86.4173 22.0789 85.9856 22.4685C85.554 22.9014 84.9928 23.2045 84.3885 23.4209C83.741 23.6807 83.0072 23.8106 82.187 23.8106C81.1942 23.8106 80.2878 23.6374 79.554 23.2911C78.8201 22.988 78.1295 22.5551 77.5683 21.9923L77.9137 21.5161C77.9568 21.4295 78 21.3862 78.0432 21.3429C78.1295 21.2996 78.2158 21.2563 78.3022 21.2563C78.4317 21.2563 78.6043 21.3429 78.777 21.5161C78.9496 21.646 79.2086 21.8191 79.5108 22.0356C79.8129 22.2088 80.1583 22.3819 80.6331 22.5118C81.0647 22.685 81.6259 22.7716 82.2734 22.7716C82.8777 22.7716 83.4388 22.685 83.9137 22.5118C84.3453 22.3386 84.7338 22.0789 85.0791 21.8191C85.3813 21.5161 85.5971 21.1698 85.7698 20.7801C85.9424 20.3472 86.0288 19.9576 86.0288 19.5247C86.0288 19.0052 85.8993 18.6155 85.6835 18.2692C85.4245 17.9662 85.1223 17.7064 84.7338 17.4466C84.3453 17.2302 83.9137 17.057 83.4388 16.8839C82.964 16.7107 82.446 16.5808 81.9712 16.4076C81.4532 16.2778 80.9352 16.1046 80.4604 15.8881C79.9856 15.715 79.554 15.4985 79.1655 15.1955C78.777 14.8924 78.4748 14.5461 78.2158 14.1565C78 13.7668 77.8705 13.2473 77.8705 12.6412C77.8705 12.1217 78 11.6022 78.2158 11.126C78.4317 10.6498 78.777 10.2169 79.1655 9.87056C79.5971 9.52422 80.1151 9.22118 80.6763 9.00472C81.2806 8.78826 81.9712 8.65839 82.705 8.65839C83.6115 8.65839 84.3885 8.78826 85.0791 9.04801C85.7698 9.30776 86.4173 9.69739 86.9784 10.2602L86.6763 10.7364ZM96.259 9.74068C95.5252 9.74068 94.8345 9.82727 94.2302 10.087C93.6691 10.3035 93.1511 10.6498 92.7194 11.0827C92.2446 11.5157 91.8993 12.0784 91.6403 12.6845C91.3813 13.2906 91.2086 13.9833 91.1223 14.7625H100.705C100.705 13.9833 100.619 13.2473 100.403 12.6412C100.187 12.0352 99.8849 11.4724 99.4964 11.0394C99.1079 10.6498 98.6331 10.3035 98.0719 10.087C97.554 9.82727 96.9496 9.74068 96.259 9.74068ZM96.259 8.65839C97.0791 8.65839 97.8129 8.83155 98.5468 9.0913C99.2374 9.39435 99.8417 9.78398 100.36 10.3468C100.878 10.9096 101.266 11.5589 101.568 12.3382C101.827 13.1607 102 14.0699 102 15.1089C102 15.3253 101.957 15.4552 101.871 15.5418C101.827 15.6284 101.741 15.6717 101.568 15.6717H91.036V15.9314C91.036 17.0137 91.1655 18.0094 91.4245 18.832C91.6835 19.6545 92.0288 20.3472 92.5036 20.91C92.9784 21.4728 93.5396 21.9057 94.2302 22.2088C94.8777 22.4685 95.6115 22.6417 96.4316 22.6417C97.1655 22.6417 97.8129 22.5551 98.3741 22.3819C98.8921 22.2088 99.3669 22.0356 99.7122 21.8191C100.101 21.646 100.36 21.4728 100.576 21.2996C100.791 21.1265 100.964 21.0399 101.05 21.0399C101.18 21.0399 101.266 21.0832 101.353 21.213L101.741 21.6893C101.482 21.949 101.18 22.2521 100.791 22.5118C100.403 22.7283 99.9712 22.988 99.4964 23.1612C99.0216 23.3343 98.5468 23.4642 97.9856 23.5941C97.4245 23.6807 96.9065 23.724 96.3453 23.724C95.3525 23.724 94.446 23.5508 93.6259 23.2045C92.8058 22.8581 92.0719 22.3819 91.5108 21.6893C90.9065 21.0399 90.4748 20.2173 90.1295 19.2649C89.8273 18.2692 89.6547 17.1869 89.6547 15.9314C89.6547 14.8924 89.7842 13.8967 90.0863 13.0309C90.3885 12.1217 90.8201 11.3858 91.3813 10.7364C91.9424 10.087 92.6331 9.56752 93.4532 9.22118C94.2734 8.87484 95.223 8.65839 96.259 8.65839Z" fill="currentColor" />
  <path d="M27.5827 14.4162V13.2473C27.5827 12.2516 27.1942 11.3425 26.4604 10.4766C26.0719 10.0437 25.5539 9.56752 24.9496 9.17789C24.6475 8.96143 24.3021 8.74497 23.9136 8.52851C23.6115 8.39864 23.3525 8.22547 23.0503 8.09559C22.2302 7.74926 21.3669 7.44621 20.4172 7.18646C20.5467 7.57609 20.6331 8.00901 20.7194 8.39864C20.8057 8.83156 20.8921 9.26448 20.9784 9.69739C21.4532 9.87056 21.9712 10.0437 22.4028 10.2602C22.6187 10.3468 22.8345 10.4334 23.0503 10.5632C23.1367 10.6065 23.2662 10.6498 23.3525 10.6931C23.741 10.9096 24.0431 11.126 24.3453 11.3425C25.4676 12.0785 26.1582 12.9443 26.3741 13.8101C26.1582 14.7193 25.4676 15.5851 24.3453 16.3211C24.4748 16.6674 24.6043 16.9704 24.6906 17.2735C24.8201 17.6631 24.9064 18.096 24.9496 18.4857C25.5539 18.096 26.0719 17.6198 26.4604 17.1869C27.1942 16.3211 27.5827 15.4119 27.5827 14.4162Z" fill="#2F577E" />
  <path d="M10.7482 21.1698C10.2734 20.7801 9.79857 20.3905 9.36691 19.9576C9.45324 20.3039 9.53957 20.6935 9.66907 21.0399C10.0144 21.0832 10.4029 21.1265 10.7482 21.1698Z" fill="#2F577E" />
  <path d="M13.2518 20.1741C13.4244 20.3039 13.5971 20.4338 13.7698 20.5637C14.1582 20.7802 14.5036 21.0399 14.8489 21.2131C14.8921 21.2564 14.9352 21.2997 14.9784 21.2997C15.5827 21.2997 16.2302 21.2564 16.8345 21.1698C17.1798 21.1265 17.5683 21.0832 17.9136 21.0399C18.3453 20.9533 18.777 20.8667 19.2086 20.7802C19.5971 20.6936 20.0288 20.607 20.4172 20.4771C21.3669 20.2174 22.2302 19.9143 23.0503 19.568C22.964 19.1784 22.8777 18.7887 22.7482 18.3991C22.705 18.3125 22.705 18.1826 22.6618 18.0528C22.5755 17.8363 22.4892 17.6198 22.4029 17.4034C21.9712 17.6198 21.4532 17.793 20.9784 17.9662C20.6331 18.0961 20.2446 18.1826 19.8993 18.2692C19.8561 18.3125 19.8129 18.3125 19.7698 18.3125C19.3381 18.4424 18.9496 18.529 18.518 18.5723C18.3021 18.6156 18.0863 18.6588 17.8705 18.7021C17.223 18.832 16.5755 18.8753 15.8849 18.9619C15.1942 19.0052 14.5036 19.0485 13.7698 19.0485C13.0791 19.0485 12.3885 19.0052 11.6978 18.9619C12.1726 19.3948 12.7338 19.7844 13.2518 20.1741Z" fill="#2F577E" />
  <path d="M4.83452 9.26448C4.83452 9.35106 4.87769 9.48094 4.92085 9.61082C5.00718 9.82728 5.09352 10.0437 5.17985 10.2602C5.6115 10.0437 6.12949 9.87057 6.60431 9.6974C6.94963 9.56752 7.33812 9.48094 7.68344 9.39436C7.72661 9.35107 7.76977 9.35107 7.81294 9.35107C8.24459 9.26448 8.63308 9.13461 9.06474 9.09131C9.28057 9.04802 9.49639 9.00473 9.71222 8.96144C10.3597 8.87485 11.0072 8.78827 11.6978 8.70169C12.3885 8.65839 13.0791 8.65839 13.7698 8.65839C14.5036 8.65839 15.1942 8.65839 15.8849 8.70169C15.4101 8.26877 14.8489 7.87914 14.3309 7.48951C14.1583 7.35964 13.9856 7.22976 13.7698 7.09988C13.4245 6.88343 13.0791 6.62367 12.7338 6.45051C12.6906 6.40721 12.6475 6.36392 12.6043 6.36392C11.9568 6.36392 11.3525 6.45051 10.7482 6.4938C10.4029 6.53709 10.0144 6.58038 9.66905 6.62367C9.2374 6.71026 8.80575 6.79684 8.37409 6.88343C7.9856 6.97001 7.55395 7.05659 7.16546 7.18647C6.21582 7.44622 5.35251 7.74926 4.53236 8.0956C4.61869 8.48523 4.70503 8.87485 4.83452 9.26448Z" fill="#2F577E" />
  <path d="M16.8345 6.49377C17.3093 6.8834 17.7842 7.27303 18.2158 7.70595C18.1295 7.35961 18.0432 6.96999 17.9137 6.62365C17.5683 6.58036 17.1798 6.53707 16.8345 6.49377Z" fill="#2F577E" />
  <path d="M1.20863 13.8101C1.42446 12.9443 2.11511 12.0784 3.23741 11.3425C3.10791 10.9961 2.97842 10.6931 2.89209 10.3901C2.76259 10.0004 2.67626 9.56751 2.58993 9.17789C2.02878 9.56751 1.51079 10.0437 1.1223 10.4766C0.388489 11.3425 0 12.2516 0 13.2473V14.4162C0 15.4119 0.388489 16.3211 1.1223 17.1869C1.51079 17.6198 2.02878 18.0527 2.58993 18.4857C2.93525 18.7021 3.28058 18.9186 3.66906 19.135C3.97122 19.2649 4.23022 19.4381 4.53237 19.5679C5.35252 19.9143 6.21583 20.2173 7.16547 20.4771C7.03597 20.0875 6.94964 19.6545 6.86331 19.2649C6.77698 18.832 6.69065 18.3991 6.60432 17.9661C6.1295 17.793 5.61151 17.6198 5.17986 17.4034C4.96403 17.3168 4.7482 17.2302 4.53237 17.1003C4.44604 17.057 4.31655 17.0137 4.23022 16.9704C3.84173 16.754 3.53957 16.5375 3.23741 16.3211C2.11511 15.5851 1.42446 14.7193 1.20863 13.8101Z" fill="#2F577E" />
  <path d="M16.8345 21.1698C16.2302 21.213 15.5827 21.2996 14.9784 21.2996C15.2806 21.5161 15.6259 21.6893 15.9281 21.8191C16.2302 21.6027 16.5324 21.3862 16.8345 21.1698Z" fill="#F4B563" />
  <path d="M23.9569 4.45907L23.1367 3.63652C22.4461 2.94385 21.4964 2.55422 20.3741 2.46764C19.7698 2.42434 19.1223 2.51093 18.4317 2.6408C18.0432 2.6841 17.6115 2.81397 17.2231 2.90056C16.9209 2.98714 16.6187 3.11702 16.2734 3.24689C15.4964 3.54993 14.6331 3.93956 13.7698 4.41577C14.1583 4.63223 14.5036 4.84869 14.8921 5.10844C15.2374 5.3249 15.5828 5.58466 15.9281 5.84441C16.4029 5.58466 16.8777 5.3682 17.3526 5.19503C17.5684 5.10844 17.7842 5.02186 18 4.93528C18.1295 4.89198 18.259 4.89198 18.3454 4.84869C18.7339 4.71882 19.1223 4.63223 19.5108 4.54565C20.8058 4.32919 21.9281 4.45907 22.7051 4.89198" fill="#F4B563" />
  <path d="M22.705 4.89199C23.1367 5.67124 23.2662 6.79684 23.0503 8.09559C23.3525 8.22547 23.6115 8.39864 23.9137 8.52851C24.3021 8.74497 24.6475 8.96143 24.9496 9.17789C25.0791 8.48522 25.1654 7.83584 25.1223 7.22975C25.036 6.10416 24.6475 5.15174 23.9568 4.45907C23.8273 4.2859 23.6978 4.19932 23.5252 4.06944" fill="#F4B563" />
  <path d="M17.8705 18.7021C18.0863 18.6588 18.3021 18.6155 18.518 18.5722C18.9496 18.529 19.3381 18.4424 19.7697 18.3125C19.8129 18.3125 19.8561 18.3125 19.8992 18.2692C20.3309 17.8363 20.7194 17.3601 21.1079 16.8839C21.3237 16.5808 21.5827 16.2778 21.7554 15.9747C22.0144 15.6284 22.2733 15.2821 22.5323 14.9357C22.7482 14.5461 22.964 14.1998 23.1798 13.8534C23.6546 12.9876 24.0431 12.1217 24.3453 11.3425C24.0431 11.126 23.741 10.9096 23.3525 10.6931C23.2662 10.6498 23.1367 10.6065 23.0503 10.5632C22.8345 10.4334 22.6187 10.3468 22.4028 10.2602C22.2302 10.7364 22.0144 11.2126 21.7554 11.6888C21.6259 11.9919 21.4532 12.3382 21.2374 12.6412C21.2374 12.6845 21.1942 12.7278 21.151 12.7711C20.9784 13.1175 20.7194 13.4638 20.5036 13.8534C20.3741 14.0266 20.2446 14.1998 20.1151 14.3729C19.7266 14.8924 19.3381 15.4552 18.9064 15.9314C18.4316 16.4942 17.9568 17.0137 17.4388 17.4899C16.964 18.0094 16.446 18.4857 15.8849 18.9619C16.5755 18.8753 17.223 18.832 17.8705 18.7021Z" fill="#F4B563" />
  <path d="M10.7482 6.49379C11.3525 6.4072 11.9569 6.36391 12.6043 6.36391C12.3022 6.14745 11.9569 5.97428 11.6547 5.84441C11.3525 6.01757 11.0504 6.27733 10.7482 6.49379Z" fill="#F4B563" />
  <path d="M4.87771 22.7716C4.44605 21.9923 4.31656 20.8667 4.53238 19.568C4.23022 19.4381 3.97123 19.2649 3.66907 19.135C3.28058 18.9186 2.93526 18.7021 2.58994 18.4857C2.50361 19.1783 2.41728 19.8277 2.46044 20.4338C2.54677 21.5594 2.93526 22.5118 3.62591 23.2045L4.44605 24.027C5.1367 24.7197 6.08634 25.1093 7.20864 25.1959C7.81296 25.2392 8.46044 25.1526 9.15109 25.066C9.53958 24.9794 9.97123 24.8929 10.3597 24.763C10.6619 24.6764 10.964 24.5465 11.3094 24.4166C12.0863 24.1136 12.9496 23.724 13.7698 23.2478C13.4245 23.0313 13.0791 22.8148 12.6907 22.5984C12.3453 22.3386 12 22.1222 11.6547 21.8624C11.1799 22.0789 10.705 22.2953 10.2302 22.4685C10.0144 22.5551 9.79857 22.6417 9.58274 22.7283C9.45325 22.7716 9.32375 22.8148 9.23742 22.8148C8.84893 22.9447 8.46044 23.0313 8.07195 23.1179C6.77699 23.3344 5.65469 23.2045 4.87771 22.7716Z" fill="#F4B563" />
  <path d="M4.23022 16.9705C4.31655 17.0137 4.44604 17.057 4.53238 17.1003C4.7482 17.2302 4.96403 17.3168 5.17986 17.4034C5.35252 16.9272 5.56835 16.4509 5.82734 15.9747C5.95684 15.6717 6.1295 15.3254 6.34532 15.0223C6.34532 14.979 6.38849 14.9357 6.43166 14.8924C6.60432 14.5461 6.86331 14.1998 7.07914 13.8101C7.20863 13.637 7.33813 13.4638 7.46763 13.2906C7.85612 12.7711 8.24461 12.2083 8.67626 11.7321C9.15108 11.1693 9.6259 10.6498 10.1439 10.1736C10.6187 9.65411 11.1367 9.1779 11.6978 8.70169C11.0072 8.78827 10.3597 8.83157 9.71223 8.96144C9.4964 9.00473 9.28058 9.04803 9.06475 9.09132C8.63309 9.13461 8.24461 9.26449 7.81295 9.35107C7.76979 9.35107 7.72662 9.35107 7.68345 9.39436C7.2518 9.82728 6.86331 10.3035 6.47482 10.7797C6.25899 11.0827 6 11.3858 5.78417 11.6888C5.56835 12.0352 5.30935 12.3815 5.05036 12.7278C4.83453 13.1175 4.61871 13.4638 4.40288 13.8101C3.92806 14.676 3.53957 15.5418 3.23741 16.3211C3.53957 16.5375 3.84173 16.754 4.23022 16.9705Z" fill="#F4B563" />
  <path d="M6.47481 16.8839C6.38848 16.2778 6.34532 15.6284 6.34532 15.0223C6.12949 15.3254 5.95683 15.6717 5.82733 15.9747C5.99999 16.2778 6.25899 16.5808 6.47481 16.8839Z" fill="#5CAFCD" />
  <path d="M4.87771 4.89198C5.65469 4.45906 6.77699 4.32919 8.07195 4.54565C8.20145 4.24261 8.37411 3.98285 8.50361 3.67981C8.71943 3.29018 8.93526 2.94385 9.15109 2.6408C8.46044 2.51093 7.81296 2.42434 7.20864 2.46764C6.08634 2.55422 5.1367 2.94385 4.44605 3.63652C4.27339 3.76639 4.18706 3.89627 4.05756 4.06944C4.18706 3.89627 4.27339 3.76639 4.44605 3.63652L3.62591 4.45906C2.93526 5.15174 2.54677 6.10416 2.46044 7.22975C2.41728 7.83583 2.50361 8.48521 2.58994 9.17788C2.67627 9.56751 2.7626 10.0004 2.8921 10.3901C2.97843 10.6931 3.10792 10.9961 3.23742 11.3425C3.53958 12.1217 3.92807 12.9876 4.40289 13.8534C4.61871 13.4638 4.83454 13.1174 5.05037 12.7278C5.30936 12.3815 5.56835 12.0351 5.78418 11.6888C5.56835 11.2126 5.35253 10.7364 5.17987 10.2602C5.09353 10.0437 5.0072 9.82726 4.92087 9.6108C4.87771 9.48093 4.83454 9.35105 4.83454 9.26447C4.70504 8.87484 4.61871 8.48521 4.53238 8.09559C4.31656 6.79683 4.44605 5.67124 4.87771 4.89198Z" fill="#5CAFCD" />
  <path d="M21.1079 10.7797C21.1511 11.3858 21.2374 12.0351 21.2374 12.6412C21.4533 12.3382 21.6259 11.9919 21.7554 11.6888C21.5828 11.3858 21.3238 11.0827 21.1079 10.7797Z" fill="#5CAFCD" />
  <path d="M18.6475 9.74068C18.6043 9.52422 18.5612 9.30776 18.518 9.0913C18.4748 8.65838 18.3453 8.26875 18.259 7.83583C18.259 7.79254 18.259 7.74925 18.2158 7.70596C17.7842 7.27304 17.3094 6.88341 16.8345 6.49378C16.5324 6.27732 16.2302 6.01757 15.9281 5.8444C15.5827 5.58465 15.2374 5.3249 14.8921 5.06515C14.5036 4.84869 14.1583 4.63223 13.7698 4.41577C12.9496 3.93956 12.0863 3.54993 11.3094 3.24689C11.0935 3.54993 10.8777 3.85297 10.6619 4.2426C10.6187 4.32919 10.5755 4.45906 10.5324 4.54564C10.4029 4.7621 10.3166 4.97856 10.2302 5.19502C10.705 5.36819 11.1799 5.58465 11.6547 5.8444C11.9568 5.97428 12.3022 6.14745 12.6043 6.36391C12.6475 6.36391 12.6907 6.4072 12.7338 6.45049C13.0791 6.62366 13.4245 6.88341 13.7698 7.09987C13.9856 7.22974 14.1583 7.35962 14.3309 7.4895C14.8489 7.87912 15.4101 8.26875 15.8849 8.70167C16.4461 9.17788 16.964 9.65409 17.4389 10.1736C17.9568 10.6498 18.4317 11.1693 18.9065 11.7321C18.8202 11.0394 18.7338 10.3901 18.6475 9.74068Z" fill="#5CAFCD" />
  <path d="M8.93523 17.9228C8.9784 18.1393 9.02156 18.3558 9.06473 18.5722C9.10789 19.0051 9.23739 19.3948 9.32372 19.8277C9.32372 19.871 9.32372 19.9143 9.36689 19.9576C9.79854 20.3905 10.2734 20.7801 10.7482 21.1697C11.0503 21.3862 11.3525 21.6459 11.6547 21.8191C12 22.0789 12.3453 22.3386 12.6906 22.5984C13.0791 22.8148 13.4244 23.0313 13.7698 23.2477C14.6331 23.724 15.4964 24.1136 16.2734 24.4166C16.4892 24.1136 16.705 23.8105 16.9208 23.4209C16.964 23.3343 17.0072 23.2045 17.0503 23.1179C17.1798 22.9014 17.2662 22.685 17.3525 22.4685C16.8777 22.2953 16.4029 22.0789 15.928 21.8191C15.6259 21.6892 15.2806 21.5161 14.9784 21.2996C14.9352 21.2996 14.8921 21.2563 14.8489 21.213C14.5036 21.0399 14.1583 20.7801 13.7698 20.5636C13.5971 20.4338 13.4244 20.3039 13.2518 20.174C12.7338 19.7844 12.1726 19.3948 11.6978 18.9618C11.1367 18.4856 10.6187 18.0094 10.1439 17.4899C9.62588 17.0137 9.15106 16.4942 8.67624 15.9314C8.76257 16.6241 8.80574 17.2735 8.93523 17.9228Z" fill="#5CAFCD" />
  <path d="M23.1367 24.027L23.9568 23.2045C24.6475 22.5118 25.036 21.5594 25.1223 20.4338C25.1655 19.8277 25.0791 19.1783 24.9497 18.4857C24.9065 18.096 24.8202 17.6631 24.6907 17.2735C24.6043 16.9704 24.4748 16.6674 24.3453 16.3211C24.0432 15.5418 23.6547 14.676 23.1799 13.8534C22.964 14.1998 22.7482 14.5461 22.5324 14.9357C22.2734 15.2821 22.0144 15.6284 21.7554 15.9747C22.0144 16.4509 22.2302 16.9272 22.4029 17.4034C22.4892 17.6198 22.5756 17.8363 22.6619 18.0527C22.705 18.1826 22.705 18.3125 22.7482 18.3991C22.8777 18.7887 22.964 19.1783 23.0504 19.568C23.2662 20.8667 23.1367 21.9923 22.705 22.7716C21.9281 23.2045 20.8058 23.3344 19.5108 23.1179C19.3813 23.4209 19.2086 23.6807 19.0792 23.9837C18.8633 24.3734 18.6475 24.7197 18.4317 25.0227C19.1223 25.1526 19.7698 25.2392 20.3741 25.1959C21.4964 25.1093 22.4461 24.7197 23.1367 24.027Z" fill="#5CAFCD" />
  <path d="M7.46765 13.2906C7.33816 13.4638 7.20866 13.637 7.07917 13.8534C6.86334 14.1998 6.60434 14.5461 6.43168 14.8924C6.38852 14.9357 6.34535 14.979 6.34535 15.0223C6.34535 15.6284 6.38852 16.2778 6.47485 16.8839C6.51801 17.2302 6.56118 17.6198 6.60435 17.9662C6.69068 18.3991 6.77701 18.832 6.86334 19.2649C6.94967 19.6545 7.036 20.0875 7.1655 20.4771C7.42449 21.4295 7.72665 22.2953 8.07197 23.1179C8.46046 23.0313 8.84895 22.9447 9.23744 22.8148C9.32377 22.7716 9.45327 22.7716 9.58276 22.7283C9.79859 22.6417 10.0144 22.5551 10.2302 22.4685C10.0144 22.0356 9.84175 21.5161 9.66909 21.0399C9.5396 20.6935 9.45327 20.3039 9.36694 19.9576C9.32377 19.9143 9.32377 19.871 9.32377 19.8277C9.23744 19.3948 9.10794 19.0052 9.06478 18.5722C9.02161 18.3558 8.97845 18.1393 8.93528 17.9229C8.80578 17.2735 8.76262 16.6241 8.67629 15.9314C8.63312 15.2388 8.58996 14.5461 8.58996 13.8534C8.58996 13.1175 8.63312 12.4248 8.67629 11.7321C8.24463 12.2083 7.85614 12.7711 7.46765 13.2906Z" fill="#47B178" />
  <path d="M21.1079 16.8839C20.7194 17.3601 20.3309 17.8363 19.8993 18.2692C20.2446 18.1826 20.6331 18.096 20.9784 17.9661C21.0216 17.6198 21.0647 17.2302 21.1079 16.8839Z" fill="#47B178" />
  <path d="M6.47481 10.7797C6.8633 10.3035 7.25179 9.87057 7.68344 9.39436C7.33812 9.48095 6.94963 9.56753 6.6043 9.69741C6.56114 10.0437 6.51797 10.4334 6.47481 10.7797Z" fill="#47B178" />
  <path d="M20.1151 14.3729C20.2446 14.1998 20.3741 14.0266 20.5036 13.8534C20.7194 13.4638 20.9784 13.1175 21.1511 12.7711C21.1943 12.7278 21.2374 12.6845 21.2374 12.6412C21.2374 12.0352 21.1511 11.3858 21.1079 10.7797C21.0648 10.4334 21.0216 10.0437 20.9784 9.69739C20.8921 9.26447 20.8058 8.83156 20.7194 8.39864C20.6331 8.00901 20.5468 7.57609 20.4173 7.18646C20.1583 6.23404 19.8561 5.3682 19.5108 4.54565C19.1223 4.63224 18.7338 4.71882 18.3453 4.8487C18.259 4.89199 18.1295 4.89199 18 4.93528C17.7842 5.02187 17.5684 5.10845 17.3525 5.19503C17.5684 5.62795 17.741 6.14746 17.9137 6.62367C18.0432 6.97 18.1295 7.35963 18.2158 7.70596C18.259 7.74926 18.259 7.79255 18.259 7.83584C18.3453 8.26876 18.4748 8.65839 18.518 9.09131C18.5612 9.30777 18.6043 9.52423 18.6475 9.74069C18.7338 10.3901 18.8202 11.0394 18.9065 11.7321C18.9497 12.4248 18.9497 13.1175 18.9497 13.8534C18.9497 14.5461 18.9497 15.2388 18.9065 15.9314C19.3381 15.4552 19.7266 14.8924 20.1151 14.3729Z" fill="#47B178" />
  <path d="M18.4316 2.59752C18 2.03472 17.5683 1.51522 17.1367 1.12559C16.2733 0.389627 15.3669 0 14.3741 0H13.2086C12.2158 0 11.3093 0.389627 10.446 1.12559C10.0144 1.51522 9.53954 2.03472 9.15105 2.59752C8.93522 2.94385 8.71939 3.29019 8.50357 3.67981C8.37407 3.98286 8.20141 4.24261 8.07191 4.54565C7.72659 5.3682 7.42443 6.23404 7.16544 7.18646C7.55392 7.05658 7.98558 6.97 8.37407 6.88342C8.80572 6.79683 9.23738 6.71025 9.66903 6.62367C9.84169 6.14745 10.0144 5.62795 10.2302 5.19503C10.3165 4.97857 10.4028 4.76211 10.5323 4.54565C10.5755 4.45907 10.6187 4.32919 10.6618 4.24261C10.8777 3.85298 11.0935 3.54994 11.3093 3.24689C12.0431 2.1213 12.9064 1.42863 13.7698 1.21217C14.6762 1.42863 15.5395 2.1213 16.2733 3.24689C16.6187 3.11702 16.9208 2.98714 17.223 2.90056" fill="#47B178" />
  <path d="M13.2086 27.6635H14.3741C15.3669 27.6635 16.2734 27.2739 17.1367 26.538C17.5684 26.1483 18 25.6288 18.4317 25.0227C18.6475 24.7197 18.8633 24.3734 19.0792 23.9837C19.2086 23.6807 19.3813 23.4209 19.5108 23.1179C19.8561 22.2953 20.1583 21.4295 20.4173 20.4771L19.2086 20.7801C18.777 20.8667 18.3453 20.9533 17.9137 21.0399C17.741 21.5161 17.5684 22.0356 17.3525 22.4685C17.2662 22.685 17.1799 22.9014 17.0504 23.1179C17.0072 23.2045 16.964 23.3343 16.9209 23.4209C16.705 23.8106 16.4892 24.1136 16.2734 24.4166C15.5396 25.5422 14.6763 26.2349 13.7698 26.4514C12.9065 26.2349 12.0432 25.5422 11.3094 24.4166C10.964 24.5465 10.6619 24.6764 10.3597 24.763L9.15109 25.0227C9.53958 25.6288 10.0144 26.1483 10.4461 26.538C11.3094 27.2739 12.2158 27.6635 13.2086 27.6635Z" fill="#47B178" />
</svg>
